<svg width="60" height="60" viewBox="0 0 60 60" fill="none" xmlns="http://www.w3.org/2000/svg">
<g filter="url(#filter0_d)">
<path d="M28.1135 35.872C27.9695 34.936 27.9935 34.096 28.1855 33.352C28.4015 32.584 28.6895 31.888 29.0495 31.264C29.4095 30.616 29.8175 30.016 30.2735 29.464C30.7535 28.912 31.1975 28.372 31.6055 27.844C32.0135 27.292 32.3495 26.74 32.6135 26.188C32.9015 25.636 33.0455 25.036 33.0455 24.388C33.0455 23.428 32.7455 22.612 32.1455 21.94C31.5695 21.244 30.7055 20.896 29.5535 20.896C28.7615 20.896 28.0055 21.088 27.2855 21.472C26.5895 21.832 25.9655 22.336 25.4135 22.984L23.7215 21.436C24.4895 20.572 25.3775 19.864 26.3855 19.312C27.4175 18.736 28.5935 18.448 29.9135 18.448C31.7375 18.448 33.1895 18.964 34.2695 19.996C35.3735 21.004 35.9255 22.408 35.9255 24.208C35.9255 25 35.7815 25.72 35.4935 26.368C35.2055 27.016 34.8455 27.628 34.4135 28.204C34.0055 28.78 33.5615 29.356 33.0815 29.932C32.6255 30.484 32.1935 31.06 31.7855 31.66C31.4015 32.26 31.1015 32.908 30.8855 33.604C30.6695 34.276 30.6095 35.032 30.7055 35.872H28.1135ZM29.4815 43.432C28.8815 43.432 28.3775 43.228 27.9695 42.82C27.5615 42.388 27.3575 41.848 27.3575 41.2C27.3575 40.504 27.5615 39.952 27.9695 39.544C28.3775 39.112 28.8815 38.896 29.4815 38.896C30.0815 38.896 30.5855 39.112 30.9935 39.544C31.4255 39.952 31.6415 40.504 31.6415 41.2C31.6415 41.848 31.4255 42.388 30.9935 42.82C30.5855 43.228 30.0815 43.432 29.4815 43.432Z" fill="black"/>
</g>
<defs>
<filter id="filter0_d" x="-15" y="-15" width="100" height="100" filterUnits="userSpaceOnUse" color-interpolation-filters="sRGB">
<feFlood flood-opacity="0" result="BackgroundImageFix"/>
<feColorMatrix in="SourceAlpha" type="matrix" values="0 0 0 0 0 0 0 0 0 0 0 0 0 0 0 0 0 0 127 0"/>
<feOffset dx="5" dy="5"/>
<feGaussianBlur stdDeviation="10"/>
<feColorMatrix type="matrix" values="0 0 0 0 0 0 0 0 0 0 0 0 0 0 0 0 0 0 0.1 0"/>
<feBlend mode="normal" in2="BackgroundImageFix" result="effect1_dropShadow"/>
<feBlend mode="normal" in="SourceGraphic" in2="effect1_dropShadow" result="shape"/>
</filter>
</defs>
</svg>
