<svg width="36" height="36" viewBox="0 0 36 36" fill="none" xmlns="http://www.w3.org/2000/svg">
<path d="M36 31C36 33.7617 33.7617 36 31 36H5C2.23828 36 0 33.7617 0 31V5C0 2.23828 2.23828 0 5 0H31C33.7617 0 36 2.23828 36 5V31Z" fill="#0288D1"/>
<path d="M6 13H11V30H6V13Z" fill="white"/>
<path d="M8.48437 11H8.45703C6.96484 11 6 9.88672 6 8.5C6 7.07812 6.99609 6 8.51562 6C10.0352 6 10.9727 7.07812 11 8.5C11 9.88672 10.0352 11 8.48437 11Z" fill="white"/>
<path d="M30 30H25V20.9023C25 18.7031 23.7734 17.2031 21.8086 17.2031C20.3086 17.2031 19.4961 18.2148 19.1016 19.1914C18.957 19.543 19 20.5117 19 21V30H14V13H19V15.6172C19.7227 14.5 20.8516 13 23.7383 13C27.3164 13 30 15.25 30 20.2734V30Z" fill="white"/>
</svg>
