<svg width="45" height="36" viewBox="0 0 45 36" fill="none" xmlns="http://www.w3.org/2000/svg">
<path d="M44.7568 4.25754C43.1106 4.98491 41.3431 5.46983 39.4784 5.69774C41.3722 4.57274 42.8338 2.77856 43.5185 0.659483C41.7412 1.70205 39.7746 2.46336 37.6866 2.86584C36.0161 1.09591 33.6319 0 30.9903 0C25.9207 0 21.8078 4.06843 21.8078 9.08728C21.8078 9.79526 21.8904 10.4887 22.0457 11.1579C14.4171 10.7796 7.64803 7.15733 3.12234 1.65841C2.32597 3.00162 1.87923 4.57274 1.87923 6.23599C1.87923 9.38793 3.49624 12.1665 5.96303 13.8006C4.45771 13.757 3.03979 13.3351 1.80154 12.6659C1.80154 12.695 1.80154 12.7338 1.80154 12.7726C1.80154 17.1805 4.96758 20.8513 9.16307 21.6902C8.39584 21.8987 7.5849 22.0151 6.74969 22.0151C6.15727 22.0151 5.57942 21.9472 5.02099 21.8454C6.18641 25.4483 9.57582 28.0814 13.5965 28.1589C10.4499 30.5932 6.49233 32.0528 2.19001 32.0528C1.44705 32.0528 0.718672 32.0092 0 31.9219C4.06924 34.4919 8.89599 36 14.0772 36C30.966 36 40.2068 22.1509 40.2068 10.1347C40.2068 9.74192 40.1922 9.34914 40.1728 8.96606C41.9743 7.69073 43.5282 6.09052 44.7568 4.25754Z" fill="#03A9F4"/>
</svg>
