<?xml version="1.0" encoding="utf-8"?>
<svg version="1.1" id="Layer_1" xmlns="http://www.w3.org/2000/svg" xmlns:xlink="http://www.w3.org/1999/xlink" x="0px" y="0px"
	 viewBox="0 0 512 512" style="enable-background:new 0 0 512 512;" xml:space="preserve">
<style type="text/css">
	.st0{fill:#FF0000;}
</style>
<title>Artboard 1</title>
<path class="st0" d="M448,510.7l-56-56c-1.7-1.7-1.7-4.5,0-6.3l56-56c1.7-1.7,4.5-1.7,6.3,0l56,56c1.7,1.7,1.7,4.5,0,6.3l-56,56
	C452.5,512.4,449.7,512.4,448,510.7z"/>
<path d="M327.1,394.8c-26.6,14.2-57.5,21.2-90.2,18.5c-77.7-6.4-141.2-68.7-148.8-146.3c-10.1-103,76-189.1,179-179
	c77.6,7.6,139.9,71.1,146.3,148.8c2.7,32.7-4.4,63.6-18.5,90.2c-1.2,2.3-0.9,5.1,1,7l56.6,56.9c1.7,1.7,4.7,1.5,6-0.5
	c28.4-42,44.4-93.1,42.7-147.9C497,114.5,394.6,8.6,266.8,0.5C115.9-9-9,115.9,0.5,266.8C8.6,394.5,114.4,496.9,242.3,501
	C297,502.8,348,486.9,390,458.6c2-1.4,2.3-4.3,0.6-6l-56.5-56.8C332.3,393.9,329.4,393.6,327.1,394.8z"/>
</svg>
