<?xml version="1.0" standalone="no"?>
<!DOCTYPE svg PUBLIC "-//W3C//DTD SVG 20010904//EN"
 "http://www.w3.org/TR/2001/REC-SVG-20010904/DTD/svg10.dtd">
<svg version="1.0" xmlns="http://www.w3.org/2000/svg"
 width="2001.000000pt" height="2001.000000pt" viewBox="0 0 2001.000000 2001.000000"
 preserveAspectRatio="xMidYMid meet">
<metadata>
Created by potrace 1.11, written by Peter Selinger 2001-2013
</metadata>
<g transform="translate(0.000000,2001.000000) scale(0.100000,-0.100000)"
fill="#000000" stroke="none">
<path d="M9557 19854 c-1 -1 -72 -5 -157 -9 -184 -7 -248 -11 -355 -20 -44 -3
-103 -8 -131 -10 -28 -2 -68 -6 -90 -9 -21 -3 -66 -8 -99 -11 -54 -5 -254 -31
-315 -40 -14 -2 -45 -7 -70 -10 -25 -3 -67 -10 -95 -15 -27 -5 -66 -12 -85
-14 -133 -21 -491 -97 -709 -151 -584 -146 -1188 -361 -1716 -610 -177 -83
-476 -235 -507 -256 -14 -11 -29 -19 -33 -19 -44 0 -856 -512 -1042 -656 -28
-22 -60 -46 -72 -54 -28 -19 -231 -175 -331 -255 -65 -51 -345 -289 -376 -319
-6 -6 -55 -51 -110 -101 -187 -171 -525 -517 -685 -701 -24 -27 -69 -79 -100
-115 -76 -86 -276 -334 -324 -400 -22 -30 -42 -56 -45 -59 -10 -9 -184 -249
-233 -320 -350 -514 -634 -1012 -851 -1495 -33 -71 -67 -148 -77 -170 -81
-178 -242 -608 -324 -865 -56 -175 -122 -397 -140 -470 -1 -8 -13 -53 -25
-100 -12 -47 -23 -92 -25 -100 -2 -8 -10 -42 -18 -75 -15 -57 -70 -316 -82
-380 -56 -315 -60 -344 -70 -415 -3 -25 -8 -56 -10 -70 -6 -36 -13 -86 -21
-155 -3 -33 -8 -67 -9 -75 -2 -8 -6 -51 -10 -95 -4 -44 -9 -91 -11 -105 -2
-22 -6 -70 -19 -245 -14 -186 -19 -351 -19 -640 0 -303 9 -654 18 -715 2 -14
7 -65 11 -115 6 -90 11 -141 20 -225 3 -25 8 -65 11 -90 5 -48 9 -78 18 -150
4 -25 8 -61 11 -80 10 -81 16 -128 25 -170 5 -25 12 -67 16 -95 4 -27 8 -52 9
-55 1 -3 5 -25 9 -50 27 -146 72 -364 102 -485 3 -11 7 -30 10 -43 41 -200
197 -721 294 -982 17 -47 42 -114 54 -150 35 -98 128 -324 137 -335 5 -5 9
-15 9 -22 0 -12 21 -60 96 -221 19 -40 34 -75 34 -78 0 -7 204 -414 242 -483
17 -31 44 -81 61 -111 250 -458 659 -1062 977 -1444 67 -79 196 -233 205 -242
5 -6 37 -42 70 -79 263 -299 650 -677 979 -955 16 -14 46 -39 65 -56 76 -65
243 -196 396 -311 503 -376 999 -680 1557 -952 239 -116 250 -121 378 -176 46
-20 98 -42 114 -50 103 -48 661 -256 751 -279 6 -2 17 -6 25 -9 36 -14 327
-100 485 -142 152 -41 327 -81 565 -129 204 -42 239 -49 328 -62 20 -3 62 -9
92 -14 30 -5 75 -12 100 -15 25 -3 52 -8 60 -10 8 -2 44 -7 80 -10 36 -4 76
-8 90 -10 37 -5 138 -16 190 -21 25 -2 71 -6 103 -9 474 -43 1122 -48 1562
-10 22 2 76 6 120 10 79 6 128 11 195 20 19 3 64 7 100 10 36 3 72 7 80 10 8
2 38 6 65 10 28 3 77 10 110 15 33 5 78 12 100 15 22 2 51 7 65 10 14 3 45 8
70 11 25 3 61 9 80 14 19 5 51 11 71 14 46 7 345 70 429 91 36 9 74 18 85 20
49 11 66 16 170 44 366 97 797 240 1085 358 47 20 105 43 130 53 144 56 389
170 670 310 113 56 142 71 265 139 44 25 98 54 120 66 42 23 351 209 390 235
12 8 46 29 74 45 28 17 51 33 51 38 0 4 6 7 13 8 25 1 131 86 149 119 10 19
18 50 18 68 0 32 62 -28 1091 -1057 702 -702 1104 -1097 1126 -1106 42 -18
115 -12 151 11 15 10 521 511 1124 1114 956 957 1098 1102 1107 1137 14 50 7
107 -15 142 -10 14 -499 508 -1088 1097 -589 589 -1076 1077 -1083 1085 -10
13 -5 15 31 15 62 1 96 30 175 147 71 107 261 413 261 421 0 3 13 24 28 48 16
24 47 77 69 118 22 41 51 93 63 115 43 76 237 460 278 550 22 50 53 117 68
150 16 33 29 62 29 65 1 3 9 23 19 45 232 526 460 1254 582 1860 17 84 24 125
29 155 3 19 8 42 10 50 2 8 7 35 10 60 4 25 11 68 17 95 5 28 11 61 13 75 1
14 8 59 14 100 6 41 13 96 16 123 3 26 7 60 9 75 5 29 11 81 21 172 7 59 9 88
20 220 4 47 8 103 10 125 26 276 26 1057 0 1350 -3 28 -7 79 -10 115 -12 147
-16 196 -20 220 -2 14 -7 57 -11 95 -3 39 -8 79 -10 90 -2 11 -7 43 -10 70 -3
28 -7 61 -10 75 -2 14 -6 45 -9 70 -3 25 -8 56 -11 70 -6 26 -8 35 -20 115 -4
28 -8 55 -10 60 -2 11 -14 80 -19 110 -2 11 -13 67 -25 125 -12 58 -24 116
-26 130 -3 14 -10 43 -16 65 -5 22 -12 49 -14 60 -2 11 -6 29 -9 40 -2 11 -18
74 -34 140 -29 117 -88 331 -131 470 -32 106 -111 347 -121 370 -4 11 -27 72
-50 135 -22 63 -47 129 -54 145 -7 17 -41 100 -75 185 -35 85 -75 182 -90 215
-15 33 -44 97 -64 142 -171 382 -531 1024 -753 1343 -13 19 -53 78 -89 130
-36 52 -85 122 -110 155 -24 33 -52 71 -62 85 -114 164 -419 536 -631 770 -98
108 -499 512 -606 610 -190 174 -358 318 -555 473 -74 59 -141 112 -148 118
-89 73 -449 324 -647 452 -128 82 -152 96 -370 225 -330 194 -777 415 -1140
564 -241 99 -657 250 -805 292 -25 7 -124 36 -220 64 -247 72 -547 145 -770
187 -170 32 -295 54 -345 61 -11 1 -63 9 -115 17 -52 9 -124 19 -160 22 -36 4
-67 8 -70 10 -3 1 -41 6 -84 10 -43 4 -87 8 -96 10 -10 2 -60 6 -111 10 -52 3
-105 8 -119 10 -38 6 -179 15 -340 21 -133 6 -659 12 -663 8z m598 -3368 c66
-4 138 -9 160 -11 22 -2 69 -7 105 -10 116 -11 172 -18 320 -40 147 -21 160
-23 295 -51 66 -14 131 -28 145 -30 14 -3 70 -16 125 -30 55 -14 107 -27 115
-29 8 -2 40 -11 70 -20 30 -9 78 -22 105 -30 142 -40 516 -176 675 -247 25
-11 77 -34 115 -51 88 -39 413 -204 480 -244 28 -16 84 -49 125 -73 116 -68
343 -217 470 -309 101 -73 325 -247 356 -276 6 -5 37 -32 69 -60 118 -101 173
-153 341 -320 239 -239 405 -429 593 -680 50 -66 94 -125 98 -130 46 -59 303
-458 303 -470 0 -1 25 -45 55 -96 71 -119 248 -479 310 -629 26 -63 54 -129
61 -146 35 -81 114 -308 170 -493 33 -108 117 -431 128 -495 3 -16 10 -52 16
-80 36 -179 67 -385 85 -571 4 -33 8 -76 10 -95 26 -213 26 -942 0 -1101 -2
-13 -6 -60 -10 -104 -9 -103 -49 -382 -75 -510 -11 -55 -21 -111 -24 -125 -6
-34 -44 -197 -56 -242 -5 -21 -14 -55 -20 -75 -8 -32 -44 -162 -55 -198 -1 -5
-4 -14 -5 -20 -2 -5 -29 -87 -61 -182 -98 -288 -216 -567 -373 -878 -53 -105
-55 -112 -53 -181 2 -61 7 -77 32 -110 16 -22 289 -300 606 -619 318 -319 760
-764 984 -990 223 -225 454 -458 512 -517 l106 -107 -40 4 c-23 1 -56 -4 -77
-14 -41 -18 -2217 -2186 -2242 -2234 -9 -16 -16 -49 -17 -74 l-1 -45 -1111
1115 c-1052 1056 -1113 1116 -1158 1127 -77 20 -123 7 -325 -93 -103 -51 -212
-103 -242 -116 -30 -13 -73 -31 -95 -41 -108 -49 -465 -183 -515 -195 -8 -1
-42 -12 -75 -23 -243 -81 -712 -187 -960 -218 -22 -3 -49 -7 -61 -9 -34 -7
-283 -33 -379 -40 -49 -3 -115 -8 -145 -10 -65 -5 -579 -6 -630 -1 -19 2 -84
7 -145 11 -60 3 -123 8 -140 10 -174 19 -225 24 -260 30 -16 3 -48 7 -70 10
-43 6 -194 32 -235 40 -14 3 -41 8 -60 11 -19 3 -41 7 -49 10 -7 2 -48 11 -90
20 -42 8 -89 19 -106 24 -16 5 -68 19 -115 30 -282 71 -636 195 -950 333 -170
75 -535 262 -602 309 -14 10 -28 18 -31 18 -23 0 -409 258 -592 395 -261 196
-455 365 -685 596 -119 119 -174 178 -300 319 -167 188 -450 569 -577 775
-244 399 -395 698 -538 1065 -52 135 -143 397 -151 435 -2 11 -8 31 -14 45 -8
22 -46 151 -55 190 -1 8 -10 42 -18 75 -21 80 -76 335 -83 380 -2 11 -8 47
-14 80 -6 33 -13 76 -15 95 -3 19 -10 64 -15 100 -8 58 -18 143 -35 305 -26
255 -26 977 0 1114 1 9 6 50 9 92 4 42 9 87 11 100 2 13 6 47 10 74 3 28 11
79 16 115 6 36 12 77 14 92 2 15 9 55 16 90 6 35 13 70 14 78 1 8 6 33 11 55
4 22 9 42 9 45 20 95 77 326 111 441 210 728 544 1400 994 2005 118 159 103
139 281 348 151 176 387 421 543 561 49 44 94 85 100 90 65 59 248 205 379
303 154 116 503 347 586 388 8 4 58 32 110 62 141 80 408 211 576 282 11 5 40
18 65 28 187 81 520 195 740 254 175 47 179 48 210 54 14 3 43 10 65 16 22 5
51 12 65 14 14 2 36 7 50 10 14 3 36 8 50 10 14 3 70 13 125 24 130 24 311 49
475 65 41 4 89 9 105 11 17 2 98 6 180 10 83 3 151 7 152 8 5 4 432 -2 538 -8z"/>
</g>
</svg>
